<svg width="98" height="101" viewBox="0 0 98 101" fill="none" xmlns="http://www.w3.org/2000/svg">
<path opacity="0.45" d="M93.9924 68.121C94.5987 65.4063 95.0692 62.6464 95.5398 59.8955C96.0103 57.1809 96.4627 54.4753 96.9514 51.7606C97.4038 49.2541 98.1006 46.6932 97.4762 44.1505C97.3857 43.7523 97.1776 43.2637 97.1324 42.9108C97.0962 42.5941 97.1324 42.2864 97.06 41.9516C96.8699 41.1191 96.5351 40.3319 96.2094 39.5627C95.3226 37.4362 94.7435 35.174 94.0829 32.9932C93.3861 30.6948 92.8251 28.3602 91.7845 26.1794C90.7258 23.9987 89.1694 22.1708 87.432 20.4968C83.7038 16.8772 79.7676 13.3029 75.3065 10.5973C73.1076 9.23996 70.6373 8.37127 68.4565 7.00489C66.4567 5.7471 64.6741 4.29023 62.3033 3.81969C60.1044 3.38534 57.8965 3.38534 55.6795 3.23151C55.4714 3.23151 55.1728 3.42154 55.0551 3.61156C54.6751 3.61156 54.3041 3.59347 53.9059 3.57537C53.9059 3.52107 53.8697 3.46678 53.8697 3.40344C53.8697 3.45773 53.8335 3.51203 53.8154 3.57537H53.6616C53.7973 3.34915 53.7521 3.14102 53.3449 3.15912C48.3771 3.34915 43.4454 3.02339 38.4866 3.66586C36.2878 3.94637 34.116 4.47121 32.1796 5.60231C29.8631 6.95964 27.5828 8.40746 25.2662 9.78289C20.8413 12.4161 16.3622 14.7145 12.5978 18.2979C9.02352 21.7093 6.15503 25.8265 4.20047 30.351C0.0560898 39.8975 0.960977 50.5752 2.3545 60.6285C2.97887 65.1439 3.6123 69.8583 5.72068 73.9575C7.9829 78.3643 12.2721 81.1151 15.0591 85.1057C16.4526 87.1055 17.7285 89.1686 19.3935 90.9603C21.0314 92.7067 22.9859 94.0822 25.0943 95.1771C29.3473 97.376 34.0527 98.6428 38.6857 99.8282C41.2465 100.489 43.8798 100.995 46.5582 100.905C49.101 100.815 51.5894 100.281 54.0326 99.5658C58.9642 98.1361 63.3891 96.6068 69.2437 94.5346C71.5784 93.7021 73.8587 92.761 75.9671 91.4308C78.1931 90.0373 79.9757 88.1371 81.7493 86.2368C83.5229 84.3546 85.3869 82.7168 86.6447 80.4184C87.8301 78.2738 88.8074 76.0116 90.2371 73.9937C90.8796 73.1069 91.6668 72.3558 92.3455 71.5233C93.178 70.5099 93.6666 69.3968 93.9472 68.1119H93.9834L93.9924 68.121Z" fill="url(#paint0_linear_405_49)"/>
<path d="M42.5586 0.978533C39.8078 1.22285 37.1022 1.78388 34.478 2.68877C30.1436 4.17278 26.153 6.50739 22.3163 8.99583C17.4933 12.0996 12.7878 15.511 9.114 19.8997C3.82041 26.2068 2.3183 33.5273 1.95634 41.5175C1.522 50.8921 1.78442 60.8911 6.38124 69.3246C7.1504 70.7544 8.07338 72.1117 9.01446 73.4509C15.9821 83.3142 25.1486 92.6526 36.9936 95.123C39.6449 95.684 42.3957 95.874 45.029 96.5165C46.3863 96.8604 47.7617 97.3037 49.1552 97.2495C50.4583 97.1952 51.698 96.6884 52.9196 96.1907C56.4758 94.7248 60.041 93.268 63.5972 91.802C66.8729 90.4628 70.1486 89.1055 73.1619 87.2867C77.9216 84.391 81.9212 80.319 85.3236 75.8941C92.5174 66.5557 95.3588 55.5613 95.2864 43.8702C95.2864 42.3681 95.214 40.875 94.9425 39.391C94.6982 37.9432 94.2458 36.5496 93.8114 35.138C93.359 33.6721 92.9065 32.1971 92.4541 30.7493C91.6849 28.279 90.9067 25.7996 89.6851 23.5374C87.5587 19.583 84.1834 16.4792 80.6453 13.7103C76.5009 10.4527 72.076 7.59326 67.6692 4.70667C66.0133 3.62985 64.3574 2.56208 62.5114 1.88342C60.5749 1.16856 58.4846 0.942337 56.4124 0.824702C51.9152 0.580382 47.0559 0.616578 42.5767 1.01473L42.5405 0.978533H42.5586Z" fill="url(#paint1_radial_405_49)"/>
<path d="M21.2394 29.2017C20.3708 29.9528 19.484 30.731 18.8144 31.6721C18.0814 32.7036 17.6289 33.8981 17.2489 35.1197C15.973 39.246 15.5749 43.5894 15.1767 47.9057C15.0229 49.6612 14.86 51.4076 14.9686 53.1631C15.2129 56.8913 16.6969 60.4475 18.7329 63.5784C20.7689 66.7002 23.384 69.4149 26.0353 72.03C28.4423 74.4008 30.9851 76.7354 33.9622 78.3733C36.9754 80.0292 40.4592 81.8752 43.9069 82.21C45.0561 82.3186 46.2053 82.2643 47.3545 82.1738C50.5578 81.9476 53.7792 81.5313 56.7653 80.4002C58.1045 79.8935 59.3804 79.2329 60.6654 78.5905C63.4343 77.1788 65.9409 75.8034 68.3479 73.8669C70.7368 71.9305 73.0533 69.8764 75.0893 67.5418C77.6501 64.619 79.7947 61.2709 80.9801 57.5609C82.2831 53.4979 82.3736 49.1635 82.4822 44.9106C82.5003 43.8971 82.5184 42.8565 82.3917 41.843C82.1474 40.1509 81.4506 38.5673 80.772 37.0018C79.9033 35.0473 78.9803 33.3099 77.7949 31.5182C76.329 29.256 74.7635 27.039 72.8994 25.0935C72.0307 24.1886 71.144 23.3652 70.1848 22.6232C69.1261 21.8178 68.3388 20.8496 67.3615 19.9719C65.6694 18.4879 63.4796 17.8092 61.2807 17.4653C58.8918 17.1034 56.6296 16.7143 54.3855 15.737C53.7792 15.4746 53.182 15.1488 52.5214 15.0221C51.6527 14.8502 50.7478 15.0221 49.8882 15.1941C48.2322 15.5108 46.5401 15.5108 44.9203 15.8908C42.5133 16.4338 40.2873 16.9857 37.9708 17.9811C36.7854 18.4879 35.6724 18.8498 34.5051 19.4289C32.3062 20.5601 29.5735 21.7274 27.7999 23.4557C25.7277 25.4917 23.4112 27.3196 21.2123 29.2198L21.2304 29.2017H21.2394Z" fill="url(#paint2_radial_405_49)"/>
<path d="M82.7537 44.6481C81.3421 32.9932 70.9902 19.8361 59.3714 16.7776C49.3905 14.1625 39.491 16.0627 30.786 21.6368C26.8317 24.1796 23.7641 27.6272 20.2079 30.6405C19.7916 31.0024 19.3754 31.3553 19.0587 31.8078C18.7782 32.2059 18.6062 32.6765 18.4343 33.1289C18.0181 34.26 17.6652 35.4273 17.3756 36.5946C17.1313 37.59 17.0951 38.7573 16.6426 39.6984C15.7197 41.6348 15.4572 43.9695 15.2853 46.0959C15.0772 48.9192 15.1496 51.9687 15.231 54.7919C15.3215 58.0133 17.4932 61.3071 19.0315 63.9946C20.407 66.3835 21.9091 68.8357 24.2256 70.3017C22.9859 69.0167 21.701 67.777 20.407 66.5735C19.7464 65.9673 19.0496 65.3519 18.1629 65.18C17.7104 65.0895 17.2037 65.1257 16.8055 65.4062C16.1088 65.8949 16.0907 66.9083 16.1992 67.7589C16.7241 71.6228 18.7963 75.2514 21.8276 77.6855C18.8325 75.2966 15.7649 72.8082 13.9008 69.4601C10.6613 63.6055 9.83789 55.5611 9.98267 48.9735C10.1365 41.7796 11.7563 34.6039 14.8238 28.0706C16.145 25.2654 17.7195 22.5508 19.9636 20.4243C22.0177 18.4878 24.5242 17.1305 26.9855 15.7732C29.863 14.2077 32.7677 12.6332 35.8715 11.5202C47.7708 7.28533 61.1812 10.561 72.3022 16.5514C73.3791 17.1396 74.4649 17.7368 75.3336 18.6055C76.4828 19.7547 77.1977 21.2749 77.8763 22.768C78.9079 25.0664 79.9666 27.3648 80.9982 29.636C81.4326 30.5771 81.8669 31.5363 82.4279 32.405C83.1066 33.4637 83.9572 34.3777 84.6539 35.4183C86.3099 37.9067 86.9524 40.9381 87.2148 43.9333C87.8934 51.67 86.138 59.5788 82.2831 66.3202C83.921 63.9856 84.8259 61.1442 84.844 58.2848C84.844 57.0451 80.7177 60.8456 80.5729 61.0356C78.917 63.0716 77.5415 65.3248 75.8856 67.3427C79.5594 59.9045 83.8124 53.4255 82.7537 44.621L82.7356 44.6572L82.7537 44.6481Z" fill="url(#paint3_radial_405_49)"/>
<path d="M31.0122 84.1827C32.632 84.7438 34.3241 85.1238 35.7719 86.0106C36.7854 86.635 37.6541 87.4584 38.7309 87.9652C39.7082 88.4176 40.8031 88.5533 41.8709 88.6257C52.639 89.4582 63.6967 85.893 71.9402 78.9253C73.4243 77.6675 74.8178 76.3102 76.1751 74.8986C79.8852 70.9804 83.2151 66.4831 84.5725 61.2438C83.4956 64.9177 81.1791 68.1119 78.4554 70.8085C75.7227 73.4779 72.5646 75.6858 69.4337 77.8666C67.2529 79.3687 65.0631 80.898 62.7466 82.201C57.6249 85.0605 51.8427 86.8521 45.97 86.8521C45.3275 86.8521 44.6941 86.834 44.0516 86.7617C43.4273 86.6893 42.83 86.5716 42.2057 86.463C41.2646 86.2911 40.3416 86.1011 39.4005 85.902C32.0981 84.2099 25.791 80.0655 19.5201 76.1292C22.8682 79.4411 26.4878 82.6444 31.0032 84.2099V84.1918L31.0122 84.1827Z" fill="#C2F1FA"/>
<path opacity="0.57" d="M78.8355 61.7234C77.632 64.4561 75.8765 66.8993 74.1482 69.3335C73.7319 69.8945 73.3428 70.4646 72.8452 70.9713C72.2027 71.65 71.4335 72.211 70.6825 72.7811C68.746 74.2108 66.8005 75.6405 64.6921 76.7897C62.3032 78.0656 59.7062 78.9524 57.1273 79.8392C55.8242 80.2736 54.5483 80.726 53.2453 81.1603C52.44 81.4228 51.6437 81.7033 50.8202 81.8571C50.1958 81.9657 49.5805 82.029 48.938 82.0471C42.6491 82.3458 35.4009 80.2736 30.4331 76.2649C29.3382 75.3781 28.379 74.3647 27.4198 73.324C24.3704 70.0845 21.3209 66.845 18.2714 63.6055C19.3844 64.7909 19.2487 66.8269 18.2352 68.1028C17.2218 69.3787 15.5658 70.0212 13.928 70.1569C14.2899 71.7043 15.4934 72.9078 16.6426 74.0208C19.5654 76.844 22.4972 79.6673 25.9449 81.8119C28.2614 83.2416 30.786 84.3365 33.2654 85.4314C34.9213 86.1463 36.5954 86.8792 38.2513 87.5941C40.4954 88.5714 42.8301 89.5668 45.2552 89.5487C48.2141 89.5487 50.9378 88.0465 53.8425 87.4403C55.1456 87.1778 56.4577 87.0783 57.7426 86.7978C60.6835 86.1734 63.3167 84.6351 65.8775 83.0516C67.7597 81.8843 69.6057 80.6808 71.4335 79.4592C73.3338 78.1833 75.1979 76.844 76.8176 75.2243C79.2246 72.772 80.9439 69.7407 82.6179 66.7545C83.9934 64.3023 85.3869 61.7686 85.6312 58.9816C84.844 61.8229 83.1247 64.4199 80.8082 66.2478C80.4915 66.4921 80.1476 66.7364 79.7313 66.7364C78.9622 66.7364 78.5097 65.8678 78.3921 65.1167C78.184 63.877 78.3921 62.574 78.9351 61.4429L78.7993 61.7234H78.8355Z" fill="url(#paint4_radial_405_49)" style="mix-blend-mode:color-dodge"/>
<path d="M44.4227 9.71964C40.6221 10.2083 37.0026 11.5837 33.4283 12.941C29.4196 14.4703 25.3114 16.1081 21.9091 18.7414C18.3348 21.5103 15.6382 25.5552 14.0185 29.7538C13.2674 31.7536 12.6611 33.7806 11.9644 35.8166C11.34 37.6264 10.2541 39.3547 10.6613 41.3545C7.38563 41.3907 4.10994 40.9563 0.960938 40.0967C2.61688 40.1872 4.29092 40.1148 5.94686 39.9067C7.58471 39.6985 8.22718 39.1556 8.73392 37.554C9.90122 33.8439 11.5753 30.3239 13.3126 26.8582C13.8737 25.7271 14.4619 24.5779 15.1043 23.4649C15.6925 22.4333 16.9684 21.1846 17.3032 20.0987C17.8099 18.5332 15.3486 15.6738 14.0637 14.7508C15.1224 15.0856 16.1721 15.4295 17.2037 15.7643C17.638 15.9 18.0543 16.0448 18.4615 16.2167C18.7601 16.3525 19.0677 16.5153 19.3844 16.5968C20.6422 16.9587 21.529 16.0538 22.5063 15.4476C23.7641 14.6784 25.1033 14.0179 26.4607 13.4116C29.1753 12.2081 31.9805 11.2489 34.7042 10.0635C37.2469 8.95049 39.9163 8.16323 42.6491 7.6746C45.4361 7.18596 47.9427 7.29454 50.7297 7.48457C51.3903 5.14996 52.0328 2.81535 52.63 0.462646C53.3086 2.90584 53.8154 5.41238 54.1592 7.91892C56.4396 7.6384 59.3533 9.15861 61.3169 10.1992C62.638 10.896 63.8234 11.5747 65.2532 11.8914C66.8729 12.2533 68.565 12.4705 70.1486 12.9863C72.7637 13.8369 74.4197 16.3525 75.9489 18.6328C78.3016 22.1528 80.8806 25.528 83.6676 28.7042C84.1201 29.229 84.5906 29.7629 85.215 30.0977C86.6809 30.9302 88.5088 30.4597 90.1285 29.962C87.9839 30.5049 85.8393 31.0569 83.7038 31.5998C83.3418 31.6903 82.9708 31.7898 82.5908 31.6722C82.1564 31.5365 81.8578 31.1474 81.5773 30.7854C78.6998 26.7768 76.2294 22.4423 72.7999 18.8861C69.6781 15.6105 65.7237 13.5383 61.5069 12.0181C56.2495 10.0997 49.9606 8.96858 44.3774 9.70154L44.4136 9.71964H44.4227Z" fill="#C2F1FA"/>
<path opacity="0.8" d="M72.3204 78.9705C72.9809 78.4637 73.5962 77.957 74.3202 77.5046C75.0531 77.034 75.596 76.2015 76.1661 75.55C77.5235 74.0026 79.0618 72.6272 80.2743 70.9713C82.5184 67.9037 83.8939 64.3023 84.9978 60.6737C85.7127 58.339 86.319 55.9501 86.5995 53.516C86.9343 50.5751 86.7895 47.589 86.6176 44.63C86.4275 41.0557 86.2375 37.4724 86.0565 33.898C87.9206 32.7669 89.5585 31.301 90.9158 29.6089C92.436 34.4681 94.3453 39.3636 94.4177 44.5033C94.5082 49.6793 93.3409 54.8009 92.1012 59.7959C91.3863 62.6735 90.4814 65.5419 89.2779 68.2657C87.4682 72.3738 84.9888 76.1563 82.0479 79.5405C77.5325 84.6984 71.8951 88.8609 65.6513 91.666C63.5611 92.6071 61.4165 93.3944 59.2085 94.0187C53.7249 95.6023 47.9698 96.1995 42.2781 95.7923C38.3418 95.5118 34.4599 94.7517 30.587 94.0006C29.121 93.7201 27.5918 93.3944 26.4064 92.4804C25.6191 91.838 25.0491 90.9693 24.4518 90.1639C22.3977 87.395 19.8007 85.1147 17.2761 82.78C15.1677 80.8436 13.8466 79.07 12.0458 76.9073C11.2586 75.9662 10.3356 75.1156 9.52119 74.1746C6.2998 70.4464 4.94247 65.4967 3.77516 60.6917C5.43111 64.8361 8.14577 68.5643 11.5662 71.4056C12.1454 71.8943 12.7878 72.3648 13.5208 72.5729C14.2538 72.781 15.1405 72.6453 15.6292 72.0662C20.5246 77.5227 26.5512 83.1601 33.1568 85.187C34.8671 85.7119 36.6407 86.11 38.2061 86.9787C39.2648 87.5669 40.2059 88.3722 41.3099 88.8066C44.9023 90.2001 51.1731 88.8428 54.8289 87.9379C58.0684 87.1325 61.1541 85.8114 63.9954 84.0559C66.7643 82.3457 69.7233 80.9703 72.3385 78.9524L72.3204 78.9705Z" fill="#102E85"/>
<path d="M94.5806 45.4356C93.8838 51.4984 93.0151 57.5973 91.0606 63.3795C87.1243 74.8987 78.727 84.6896 68.357 91.1143C67.2982 91.7749 66.1762 92.4173 64.9274 92.4897C64.3031 92.5259 63.6877 92.4173 63.0634 92.4354C62.1947 92.4535 61.3531 92.716 60.5387 92.9784C55.8152 94.5076 51.0646 96.3717 46.0967 96.3717C44.477 96.3717 42.8572 96.1817 41.2556 95.9554C39.5001 95.7111 37.7537 95.4125 35.9982 95.0687C28.0895 93.5394 18.6787 89.5669 15.1405 81.6401C16.1359 83.8662 18.4343 85.124 20.6151 86.2189C25.04 88.4449 29.5735 91.0962 34.5504 91.7387C37.5817 92.1187 40.7488 91.3586 43.6445 92.2635C44.658 92.5802 45.599 93.096 46.6397 93.3403C48.187 93.7204 49.8068 93.4942 51.3813 93.2679C54.2588 92.8517 57.1816 92.4173 59.7967 91.1776C60.8916 90.6528 61.9232 89.9922 63 89.4041C63.923 88.9154 64.8641 88.4811 65.8233 88.0467C69.9676 86.1646 74.112 84.2824 78.2474 82.4002C77.4149 80.31 76.7 78.1835 76.1028 76.0389C77.3244 76.9076 78.4012 77.9934 79.2427 79.2241C81.8941 78.5273 82.6361 75.1973 84.0477 72.8265C84.9526 71.2973 86.2918 70.0757 87.2148 68.5736C88.0654 67.1981 88.5359 65.6146 89.0065 64.0763C90.4362 59.2713 91.884 54.4935 93.3137 49.6886C94.0105 47.3721 94.7073 45.0375 94.8973 42.6124C95.1235 44.9108 95.1054 47.2454 94.8249 49.5438L94.5625 45.499L94.5806 45.4628V45.4356Z" fill="url(#paint5_radial_405_49)"/>
<path d="M52.1594 0.154968C47.1283 0.245457 42.1604 -0.0712535 37.1745 0.589314C32.0348 1.26798 28.1166 4.38984 23.7731 6.95067C19.3663 9.5296 14.9776 11.8642 11.3309 15.5019C8.07335 18.7413 5.35869 22.5238 3.49462 26.7225C-0.866938 36.4319 -0.152077 47.1096 1.2686 57.4072C1.94726 62.3207 2.58973 67.4424 5.03293 71.8492C7.45802 76.2198 11.7924 79.1335 14.6338 83.2598C17.3303 87.1779 20.054 90.4355 24.3523 92.6344C28.6052 94.8333 33.4102 96.0639 38.0432 97.2131C43.2554 98.5162 47.9427 98.3081 53.1096 96.7969C58.3851 95.2314 63.6877 93.4669 68.8546 91.5667C73.3157 89.9107 76.7271 87.4585 79.9847 84.0199C81.6588 82.2463 83.5228 80.6266 84.8259 78.5634C86.2556 76.2831 87.2148 73.7404 88.7802 71.5234C90.1195 69.605 91.8659 68.2296 92.5626 65.9131C93.3318 63.3342 93.6576 60.529 94.1281 57.8958C94.6348 55.0364 95.1054 52.1498 95.6302 49.2903C96.0465 47.01 96.7432 44.603 96.4627 42.2684C96.2003 40.1238 95.5759 38.1421 94.7887 36.1333C93.7752 33.482 93.0603 30.6768 92.2459 27.944C91.4768 25.3651 90.6262 22.8405 89.0245 20.6416C87.4048 18.3975 85.2602 16.5787 83.2242 14.7327C78.9531 10.8507 74.5463 7.63838 69.3432 5.13185C66.7643 3.89215 64.5383 1.72042 61.7331 0.987464C59.3804 0.363092 56.9101 0.38119 54.5031 0.290701C54.1411 0.290701 53.5439 1.04176 54.0507 1.07795C56.159 1.26798 58.4394 1.32227 60.4482 2.03713C62.5023 2.77009 64.1401 4.31745 65.968 5.46665C67.8864 6.67015 70.0129 7.48455 71.9584 8.63376C74.0849 9.89155 76.0666 11.3846 77.9668 12.9863C81.2787 15.7914 85.0883 18.859 87.4953 22.5147C90.2642 26.6953 90.8434 32.0251 92.4631 36.6762C92.9337 38.0335 93.4766 39.2913 93.7842 40.703C94.3091 43.2638 94.3634 45.2636 93.8747 47.8606C92.9517 52.928 91.8568 57.9682 90.8434 63.0356C90.6171 64.1305 90.4814 65.2797 90.1285 66.3474C89.6399 67.8496 88.5449 68.7364 87.5858 69.9218C86.2465 71.5415 85.2331 73.4237 84.2558 75.2696C82.1112 79.3778 78.7541 83.1603 75.0893 86.0559C71.343 89.0149 66.2757 90.1822 61.8327 91.6481C57.1092 93.2316 52.2318 95.3219 47.2188 95.6386C42.269 95.9554 37.1293 94.1908 32.46 92.6797C28.4152 91.3766 24.307 89.6664 21.2395 86.6169C18.1357 83.5313 16.2535 79.4593 13.1407 76.3555C9.72929 72.9622 7.04178 69.9308 5.68444 65.1892C4.36331 60.5381 3.83848 55.5703 3.34984 50.7834C2.8431 45.8518 2.63498 40.8387 3.33174 35.9252C4.8791 24.8765 11.5029 16.3072 21.0494 10.8688C23.4564 9.4934 25.8544 8.08178 28.2252 6.63396C30.6684 5.14994 32.8944 3.65688 35.7538 3.15014C41.0112 2.24526 46.3953 2.39909 51.6256 1.4942C52.0961 1.42181 53.001 0.173066 52.1685 0.191164V0.173066L52.1594 0.154968Z" fill="#073679"/>
<path d="M40.0883 10.9955C34.5866 10.8236 28.6053 14.045 24.099 16.9497C19.0316 20.2073 15.8916 24.4602 13.4394 29.9258C10.9509 35.4818 9.63886 41.4269 9.3131 47.5077C9.15927 50.3852 9.3493 53.2899 9.78364 56.1313C10.218 59.0088 10.6342 62.6465 12.5345 64.9811C12.7064 65.2073 13.2675 64.8272 13.2675 64.5829C13.177 61.9497 12.1544 59.3889 11.6839 56.7918C11.2315 54.1948 11.0052 51.5616 10.9871 48.9193C10.9328 43.1552 11.8377 37.4363 13.8466 32.007C14.8239 29.3738 16.0093 26.7315 17.5566 24.3788C19.2488 21.7818 21.7553 19.8815 24.3342 18.2256C29.284 15.0404 34.7042 13.312 40.0793 11.0317C40.0793 11.0317 40.1516 10.9774 40.1155 10.9774L40.0793 10.9955H40.0883Z" fill="#073679"/>
<path d="M14.2356 70.9895C16.2535 73.1884 18.2986 75.3782 20.3346 77.5409C22.1082 79.4231 23.8365 81.441 25.9992 82.9069C28.0352 84.2823 30.3879 84.9248 32.6682 85.7844C35.039 86.6893 37.1112 88.3091 39.5001 89.1325C44.1874 90.7523 50.1778 89.965 54.847 88.6801C59.851 87.3046 64.3754 84.6895 68.8908 82.2011C72.8995 79.9751 76.139 77.4414 79.0165 73.8399C81.8578 70.3018 84.8168 66.2751 86.5633 62.0764C88.4635 57.4977 88.5631 52.4213 88.2554 47.5439C88.1016 44.9831 87.8391 42.4223 87.6129 39.8614C87.441 37.9069 87.6853 35.2284 86.4275 33.5725C84.6539 31.2559 81.8126 29.9801 80.0843 27.5278C78.3288 25.0575 77.7135 22.0442 76.2475 19.4472C75.0983 17.4112 73.2886 16.1172 71.3883 14.8141C69.4518 13.4749 67.9588 12.5881 65.5699 13.0587C64.9093 13.1944 63.0271 14.5065 64.6288 14.787C66.5291 15.149 68.3026 16.7416 69.8228 17.8546C71.5512 19.1124 73.2343 20.4154 74.2116 22.3881C75.225 24.406 75.8494 26.5686 77.1072 28.4689C78.2745 30.1972 79.7766 31.6722 81.3783 32.9843C82.0931 33.5725 82.9618 34.0973 83.5771 34.7579C84.4458 35.6808 84.482 36.83 84.5725 38.0155C84.7987 40.522 85.043 43.0466 85.2512 45.5622C85.6493 50.159 85.9841 54.9187 84.8892 59.4432C83.8757 63.6961 81.3149 67.3157 78.8446 70.8538C76.2837 74.5276 73.4605 77.8757 69.5061 80.0836C60.774 84.9972 51.8789 89.9107 41.4546 87.9019C38.8576 87.3951 36.6949 85.9654 34.2246 85.0605C31.9443 84.2099 29.5373 83.6489 27.4108 82.4454C25.0581 81.1062 23.1759 79.0973 21.1942 77.2875C18.8777 75.1792 16.5793 73.0527 14.2266 70.9624L14.2085 70.9805L14.2356 70.9895Z" fill="#073679"/>
<path d="M41.9886 10.2808C45.6624 10.2808 49.2186 9.91881 52.8563 10.7875C56.4125 11.6381 59.9777 12.9321 63.4525 14.0813C66.9001 15.2305 70.0582 16.6421 72.7004 19.203C75.1889 21.6281 76.7091 24.949 78.9351 27.6184C81.324 30.4778 84.283 33.5092 85.3779 37.1469C86.4909 40.875 86.3371 45.1099 86.5271 48.9737C86.6176 50.9102 86.7714 52.8738 86.7533 54.8103C86.7352 57.6335 85.7579 59.9681 84.4187 62.4023C82.4823 65.9042 80.5548 69.4242 78.6184 72.9442C78.2021 73.6771 79.5957 73.1523 79.8219 72.718C81.8398 68.8541 84.0206 65.0536 85.8484 61.1173C87.5587 57.4435 87.4682 53.9054 87.2781 49.9329C87.0881 45.9243 87.1877 41.6713 86.319 37.735C85.5317 34.0793 83.0976 31.428 80.9168 28.5052C78.6727 25.4919 77.1344 21.9176 74.6821 19.0763C72.2932 16.3073 69.2257 14.579 65.8323 13.3483C62.1042 11.991 58.2041 10.7332 54.3674 9.75593C50.3226 8.72436 46.0063 8.48004 42.0881 10.0545C42.0338 10.0545 41.88 10.2808 41.9976 10.2808H41.9886Z" fill="#073679"/>
<path d="M29.9445 21.6912C26.8407 24.062 23.9541 26.6409 21.1852 29.3918C18.4524 32.1064 16.896 34.5496 16.0816 38.3501C15.1043 42.8655 14.5976 47.4081 14.6338 52.023C14.6519 53.9775 15.2129 55.9411 15.8373 57.7871C16.6065 60.0674 17.439 62.6644 18.7148 64.7004C18.7872 64.8362 19.3392 64.4742 19.303 64.3204C18.38 60.3117 15.3487 56.846 15.5387 52.5931C15.7106 48.8649 16.0092 45.1549 16.5974 41.4449C16.896 39.4903 17.2399 37.5086 17.7647 35.5902C18.4072 33.2918 19.6288 31.654 21.2304 29.9618C23.9632 27.0662 26.895 24.3877 29.9445 21.8269C30.0531 21.7364 30.1526 21.5102 29.9445 21.6731V21.6912Z" fill="#073679"/>
<path d="M21.4657 66.5464C22.4068 68.7906 24.0084 70.5913 25.6101 72.4011C27.3203 74.3375 29.2296 75.8668 31.2566 77.4684C32.2701 78.2738 33.193 79.0158 34.3422 79.6311C35.4191 80.2193 36.5411 80.7441 37.6722 81.2146C39.3644 81.9114 42.1333 83.3592 43.7712 81.9114C43.925 81.7757 44.3141 81.3051 43.8798 81.2328C43.4092 81.1423 42.9387 81.1785 42.4681 81.0789C41.9071 80.9703 41.3551 80.8165 40.8122 80.6627C39.6268 80.3279 38.4776 79.9116 37.3465 79.423C36.333 78.9886 35.3467 78.4819 34.3875 77.9571C33.3559 77.396 32.2791 76.9436 31.3199 76.283C29.3835 74.9438 27.5013 73.4236 25.8634 71.7495C24.2799 70.1117 23.0221 68.2295 21.5562 66.5193L21.52 66.5555H21.4657V66.5464Z" fill="#073679"/>
<path d="M46.2053 82.0925C48.7842 82.8074 52.0237 81.8482 54.6027 81.2872C57.8784 80.5542 61.0817 79.1788 64.0135 77.5771C69.9043 74.3557 75.3517 69.5146 78.9622 63.85C79.7947 62.5741 77.252 63.2075 76.7995 63.9043C73.4877 69.0984 69.3433 73.2608 64.0135 76.3917C61.3803 77.9391 58.5751 79.1607 55.6523 80.0656C54.105 80.5361 52.621 81.0248 51.0012 81.2329C49.3815 81.4591 47.8613 81.6129 46.2777 82.0201C46.2777 82.0201 46.1872 82.0925 46.2234 82.1106L46.2053 82.0925Z" fill="#073679"/>
<path d="M34.8942 19.6643C37.4369 18.4427 40.0339 17.3116 42.8391 16.9134C45.3999 16.5515 47.8884 16.2167 50.4854 16.4248C53.2362 16.6329 55.9238 17.2573 58.6022 17.9269C59.7876 18.2255 60.9911 18.5151 62.1403 18.9042C63.4434 19.3566 64.5292 20.2615 65.9227 20.2253C66.1309 20.2253 66.339 19.9448 66.3209 19.7548C66.0404 17.3659 62.1765 16.8591 60.2763 16.3614C57.3173 15.5923 54.304 14.796 51.2364 14.6512C45.4361 14.3526 39.9434 16.6058 34.9666 19.4109C34.8942 19.4471 34.7765 19.7276 34.8942 19.6733V19.6552V19.6643Z" fill="#073679"/>
<path d="M77.3696 31.2016C80.8535 36.459 81.8488 43.3995 81.2516 49.598C80.6453 55.8146 78.5189 61.0991 75.6956 66.6189C75.6413 66.7275 76.8448 66.3203 77.0348 66.076C80.8173 60.9362 83.3057 54.2129 83.3057 47.7792C83.3057 41.3454 81.0616 36.1061 77.4149 31.1745H77.3968L77.3787 31.2107L77.3696 31.2016Z" fill="#073679"/>
<path d="M79.0075 83.2777C77.3515 81.2417 77.0077 77.1788 76.4828 74.7899C76.7271 75.8848 73.6415 77.957 72.8452 78.2375C75.1617 79.7215 77.3063 81.4951 79.1884 83.4949C79.116 83.4225 79.0527 83.341 78.9984 83.2686V83.2867L79.0075 83.2777Z" fill="#073679"/>
<path d="M2.11015 40.0333C3.69371 41.5174 5.23201 43.0104 6.76127 44.5487C7.3223 45.1098 10.1275 47.2634 10.1094 48.0687C10.1998 45.7522 10.3175 43.4538 10.408 41.1373C7.63901 40.9292 4.87006 40.4405 2.1192 40.0243H2.1011L2.11015 40.0333Z" fill="#073679"/>
<path d="M85.9751 34.776C86.9704 33.7173 87.9749 32.6857 88.9883 31.636C86.6537 31.7446 84.3191 31.7899 82.0026 31.7446C83.731 32.5952 85.5588 33.5182 86.5632 35.1561L85.9841 34.7579V34.776H85.9751Z" fill="#073679"/>
<path opacity="0.35" d="M70.8725 30.9391C73.0714 32.7308 75.0712 34.803 76.7995 36.9476C80.1295 41.1463 82.256 46.648 81.2063 51.8963C81.6769 49.5979 81.7674 46.2679 83.541 44.4943C84.6721 43.3632 86.0475 43.8338 86.3823 45.4354C86.328 43.6438 86.2285 41.843 86.138 40.0514C86.0294 37.6444 85.8937 35.1378 84.8168 32.9751C84.4549 32.2422 83.9662 31.5273 83.3147 31.0387C82.6361 30.5319 81.7855 30.2695 81.1159 29.7628C79.7766 28.7855 79.7042 27.3105 79.1161 25.9261C78.4917 24.3968 77.5506 22.9128 76.6729 21.5374C74.8631 18.696 72.628 16.0537 69.7052 14.3073C67.1806 12.7781 64.303 11.9546 61.4617 11.1674C58.5842 10.362 55.6795 9.54761 52.7024 9.14946C43.1558 7.90977 33.4826 11.1855 25.2481 16.2076C23.6465 17.1849 22.1806 18.4065 20.5789 19.3747C19.2216 20.2072 18.2262 21.7636 17.3756 23.1028C15.4211 26.1885 14.118 29.6361 12.8421 33.0475C12.444 34.1243 12.0368 35.1921 11.711 36.287C10.8242 39.2098 10.4351 42.2593 10.227 45.3087C10.1184 46.838 10.0913 48.3763 10.0008 49.9056C9.96458 50.5661 9.96458 51.1634 10.0008 51.842C10.0551 52.4664 10.3808 53.4799 10.227 54.0862C10.4532 53.127 11.711 52.6926 12.634 53.0274C13.557 53.3622 14.1995 54.2309 14.6519 55.1177C15.4211 56.6651 15.8192 58.3572 16.516 59.9408C17.2127 61.5243 18.3619 63.0264 19.9998 63.5332C18.6425 57.5609 19.0768 50.0866 21.0947 44.3134C23.8094 36.5223 30.1707 30.2333 37.7808 27.0481C44.296 24.3154 51.7885 23.6005 58.7199 24.9759C63.1629 25.8627 67.3073 28.0978 70.8816 31.0206V30.9663L70.8725 30.9391Z" fill="#001E79"/>
<path opacity="0.75" d="M92.807 64.9629C93.4133 62.2483 93.8838 59.4793 94.3543 56.7375C94.8249 54.0229 95.2773 51.3172 95.766 48.6026C96.2184 46.096 96.9152 43.5352 96.2908 40.9925C96.2003 40.5943 95.9922 40.1057 95.947 39.7528C95.9108 39.4361 95.9469 39.1284 95.8746 38.7936C95.6845 37.9611 95.3497 37.1739 95.024 36.4047C94.1372 34.2782 93.5581 32.016 92.8975 29.8352C92.2007 27.5368 91.6397 25.2022 90.5991 23.0214C89.5404 20.8406 87.9839 19.0128 86.2466 17.3387C82.5184 13.7192 78.5822 10.1449 74.1211 7.43927C71.9222 6.08194 69.4519 5.21325 67.2711 3.84687C65.2713 2.58908 63.4887 1.13221 61.1179 0.661667C58.919 0.227321 56.7111 0.227321 54.4941 0.0734905C54.286 0.0734905 53.9873 0.263517 53.8697 0.453543C53.4897 0.453543 53.1187 0.435445 52.7205 0.417348C52.7205 0.363054 52.6843 0.308761 52.6843 0.245419C52.6843 0.299712 52.6481 0.354005 52.63 0.417348H52.4762C52.6119 0.191126 52.5667 -0.0169982 52.1595 0.00109957C47.1916 0.191126 42.26 -0.134633 37.3012 0.507836C35.1024 0.788351 32.9306 1.31319 30.9942 2.44429C28.6777 3.80162 26.3973 5.24944 24.0808 6.62487C19.6559 9.25809 15.1767 11.5565 11.4124 15.1308C7.83811 18.5422 4.96962 22.6595 3.01506 27.1839C-1.12932 36.7395 -0.224433 47.4172 1.16909 57.4705C1.79347 61.9859 2.42689 66.7003 4.53527 70.7995C6.79749 75.2063 11.0867 77.9571 13.8737 81.9477C15.2672 83.9475 16.5431 86.0106 18.2081 87.8023C19.846 89.5578 21.8005 90.9241 23.9089 92.0191C28.1619 94.2179 32.8673 95.4848 37.5003 96.6702C40.0611 97.3307 42.6944 97.8375 45.3728 97.747C47.9156 97.6565 50.404 97.1226 52.8472 96.4078C57.9688 94.9418 63.0362 93.1502 68.0583 91.3766C70.3929 90.5441 72.6733 89.603 74.7816 88.2728C77.0077 86.8793 78.7903 84.979 80.5639 83.0788C82.3375 81.1966 84.2015 79.5588 85.4593 77.2604C86.6447 75.1158 87.622 72.8536 89.0517 70.8357C89.6761 69.9489 90.4814 69.1978 91.1601 68.3653C91.9926 67.3518 92.4812 66.2388 92.7618 64.9539H92.7979L92.807 64.9629ZM80.6091 68.0667C79.8219 69.1616 79.0075 70.2113 78.2745 71.3424C77.2429 72.9259 75.9218 74.3919 74.6188 75.7492C71.2254 79.2511 67.0268 81.5314 62.7557 83.7846C58.3489 86.1192 54.3222 87.6846 49.3272 88.2457C45.5086 88.68 41.1199 88.1733 37.6722 86.3816C35.962 85.4948 34.1522 84.7438 32.3063 84.1556C30.216 83.495 28.37 82.8345 26.524 81.5948C24.8862 80.4817 23.3841 79.0882 21.9634 77.758C20.045 75.9302 18.1267 74.1023 16.1993 72.2744C15.8011 71.8944 15.412 71.5234 15.032 71.1071C14.0004 69.976 13.186 68.6549 12.6793 67.2252C9.17734 57.2261 7.91955 47.1548 10.7609 36.821C11.4034 34.5225 12.5345 31.8531 13.4122 29.6271C14.109 27.8716 14.86 26.1433 15.8373 24.5235C18.5701 20.0262 22.9316 16.7053 27.7004 14.434C31.7271 12.4976 36.0615 11.2669 40.3869 10.2173C44.5494 9.2038 48.0875 8.26272 52.44 9.12236C54.666 9.55671 56.7925 10.3802 58.9552 10.9683C60.9731 11.5113 62.9276 12.027 64.8822 12.7781C66.3662 13.3572 67.4973 14.3436 68.8727 15.1127C70.2844 15.9 71.6236 16.8229 72.8452 17.8817C76.329 20.8768 77.1977 24.053 78.9803 27.9893C80.7539 31.9255 85.9299 32.3961 86.6266 36.8029C86.7985 37.8978 87.1515 38.7393 87.432 39.7799C87.7668 41.0015 87.6582 42.3227 87.5677 43.5624C87.1876 48.3673 86.699 53.1813 85.405 57.8143C84.4458 61.2077 83.0342 64.5014 81.0163 67.3971C80.8625 67.6052 80.7177 67.8133 80.5639 68.0215L80.582 68.0577L80.6091 68.0667Z" fill="url(#paint6_radial_405_49)" style="mix-blend-mode:color-dodge"/>
<path opacity="0.45" d="M55.8144 72.9168C68.0068 59.374 63.2186 49.7547 48.6275 52.8158V60.4638L29.4654 45.3857L48.5708 30.7435V37.5197C74.051 39.0455 69.9617 61.7717 58.8649 72.6988C56.7399 74.689 54.4545 74.5279 55.8144 72.9168Z" fill="url(#paint7_linear_405_49)"/>
<path d="M55.8144 69.1733C68.0068 55.6304 63.2186 46.0111 48.6275 49.0723V56.7203L29.4654 41.6422L48.5708 27V33.7762C74.051 35.302 69.9617 58.0281 58.8649 68.9553C56.7399 70.9455 54.4545 70.7844 55.8144 69.1733Z" fill="white"/>
<defs>
<linearGradient id="paint0_linear_405_49" x1="21.33" y1="15.1941" x2="99.0688" y2="113.872" gradientUnits="userSpaceOnUse">
<stop stop-color="#001E79"/>
<stop offset="1" stop-color="#3B4190"/>
</linearGradient>
<radialGradient id="paint1_radial_405_49" cx="0" cy="0" r="1" gradientUnits="userSpaceOnUse" gradientTransform="translate(29.7148 4.157) rotate(16.6) scale(104.985 104.985)">
<stop stop-color="#6BB8F6"/>
<stop offset="0.37" stop-color="#008EEF"/>
<stop offset="0.98" stop-color="#0081C9"/>
</radialGradient>
<radialGradient id="paint2_radial_405_49" cx="0" cy="0" r="1" gradientUnits="userSpaceOnUse" gradientTransform="translate(58.1857 79.5045) rotate(16.6) scale(67.1064 67.1064)">
<stop stop-color="#008EEF"/>
<stop offset="1" stop-color="#0081C9"/>
</radialGradient>
<radialGradient id="paint3_radial_405_49" cx="0" cy="0" r="1" gradientUnits="userSpaceOnUse" gradientTransform="translate(54.7197 80.9344) rotate(16.6) scale(64.0931 64.0932)">
<stop stop-color="#2189E9"/>
<stop offset="1" stop-color="#002977"/>
</radialGradient>
<radialGradient id="paint4_radial_405_49" cx="0" cy="0" r="1" gradientUnits="userSpaceOnUse" gradientTransform="translate(57.4501 67.395) rotate(16.6) scale(41.3262 41.3262)">
<stop offset="0.29" stop-color="#0081E6"/>
<stop offset="0.37" stop-color="#0082E5"/>
<stop offset="0.52" stop-color="#153C7D"/>
<stop offset="0.73" stop-color="#002956"/>
<stop offset="0.98" stop-color="#050302"/>
<stop offset="1"/>
</radialGradient>
<radialGradient id="paint5_radial_405_49" cx="0" cy="0" r="1" gradientUnits="userSpaceOnUse" gradientTransform="translate(57.9933 74.8513) rotate(16.6) scale(50.5741 50.5741)">
<stop offset="0.08" stop-color="#42B0F4"/>
<stop offset="0.52" stop-color="#2B9AE2"/>
<stop offset="1" stop-color="#092F7A"/>
</radialGradient>
<radialGradient id="paint6_radial_405_49" cx="0" cy="0" r="1" gradientUnits="userSpaceOnUse" gradientTransform="translate(16.9683 -1.82115) rotate(16.6) scale(110.469 110.469)">
<stop offset="0.16" stop-color="#0081E6"/>
<stop offset="0.25" stop-color="#0082E5"/>
<stop offset="0.43" stop-color="#153C7D"/>
<stop offset="0.68" stop-color="#002956"/>
<stop offset="0.98" stop-color="#050302"/>
<stop offset="1"/>
</radialGradient>
<linearGradient id="paint7_linear_405_49" x1="47.8719" y1="30.5729" x2="48.9276" y2="61.8662" gradientUnits="userSpaceOnUse">
<stop stop-color="#00419E"/>
<stop offset="1" stop-color="#011F6E"/>
</linearGradient>
</defs>
</svg>
